<svg xmlns="http://www.w3.org/2000/svg" viewBox="0 0 100 100">
  <path fill="#88CE02" d="M93.9 27.2c-3.7-6.3-11.2-9.7-22.7-9.7-4.3 0-9 .6-14 1.7-9.1 2-17.5 5.2-21.7 6.6-4.1-1.3-12.6-4.5-21.7-6.6-5-1.1-9.7-1.7-14-1.7-11.4 0-19 3.4-22.7 9.7C-5.7 34.2 2.2 44.5 6.3 48.9l3.1 3.3c-1.8 2.3-2.7 4.8-2.1 7.5 1.1 5.3 6.9 8.4 17.3 8.4 2.3 0 4.8-.2 7.5-.6 8.6-1.2 16.5-3.7 20.9-5.6 4.4 1.9 12.3 4.3 20.9 5.6 2.7.4 5.2.6 7.5.6 10.4 0 16.2-3.1 17.3-8.4.6-2.7-.3-5.2-2.1-7.5l3.1-3.3c4.1-4.4 12-14.7 5.7-21.7z"/>
  <path fill="#FFFFFF" d="M50 46.5c-.7 0-1.2.2-1.6.5-.4.3-.6.7-.6 1.2 0 .4.1.8.4 1.1.3.3.7.5 1.1.7.4.2.9.3 1.4.5.5.2 1 .3 1.4.5.5.2.9.4 1.3.7.4.3.7.6.9 1 .2.4.3.9.3 1.5s-.1 1.1-.3 1.6c-.2.5-.5.9-.9 1.2-.4.3-.8.6-1.4.8-.5.2-1.1.3-1.8.3-1 0-1.8-.2-2.6-.6-.8-.4-1.3-1-1.7-1.8l1.8-1c.2.5.5.8.9 1.1.4.3.9.4 1.5.4.4 0 .8-.1 1.1-.2.3-.1.6-.3.8-.4.2-.2.4-.4.5-.6.1-.2.1-.5.1-.8 0-.3-.1-.6-.2-.8-.1-.2-.3-.4-.6-.6-.2-.2-.5-.3-.9-.4-.3-.1-.7-.3-1.1-.4-.4-.1-.9-.3-1.3-.5-.4-.2-.8-.4-1.2-.7-.4-.3-.6-.6-.9-1-.2-.4-.3-.9-.3-1.5 0-.5.1-1 .3-1.4.2-.4.5-.8.9-1.1.4-.3.8-.5 1.3-.7.5-.2 1-.2 1.6-.2.8 0 1.5.1 2.1.4.6.3 1.1.7 1.5 1.3l-1.7 1.1c-.2-.3-.5-.6-.8-.8-.3-.2-.7-.3-1.1-.3z"/>
  <path fill="#FFFFFF" d="M63.1 46.7h-3.6v9.8h-2.1v-9.8h-3.6v-1.9h9.3v1.9z"/>
  <path fill="#FFFFFF" d="M72.2 56.5h-2.1v-5.2h-5.4v5.2h-2.1V44.8h2.1v4.6h5.4v-4.6h2.1v11.7z"/>
  <path fill="#FFFFFF" d="M35.4 56.5h-2.1v-5.2h-5.4v5.2h-2.1V44.8h2.1v4.6h5.4v-4.6h2.1v11.7z"/>
  <path fill="#FFFFFF" d="M21.8 56.5l-3.2-11.7h2.3l2.2 8.7 2.3-8.7h1.8l2.3 8.7 2.2-8.7h2.3l-3.2 11.7h-2.1L26.5 48l-2.3 8.5h-2.4z"/>
</svg>