<svg xmlns="http://www.w3.org/2000/svg" viewBox="0 0 128 128">
  <path fill="currentColor" d="M63.995 0A63.995 63.995 0 110 63.995 63.995 63.995 0 0163.995 0zm0 12.8a51.195 51.195 0 11-51.195 51.195A51.195 51.195 0 0163.995 12.8zm0 6.399a44.796 44.796 0 1044.796 44.796 44.796 44.796 0 00-44.796-44.796zm0 6.399a38.397 38.397 0 1038.397 38.397 38.397 38.397 0 00-38.397-38.397zm0 6.399a31.998 31.998 0 1031.998 31.998 31.998 31.998 0 00-31.998-31.998zm0 6.399a25.599 25.599 0 1025.599 25.599 25.599 25.599 0 00-25.599-25.599zm0 6.399a19.2 19.2 0 1019.2 19.2 19.2 19.2 0 00-19.2-19.2zm0 6.399a12.8 12.8 0 1012.8 12.8 12.8 12.8 0 00-12.8-12.8zm0 6.399a6.4 6.4 0 106.4 6.4 6.4 6.4 0 00-6.4-6.4z"/>
</svg>